<?xml version="1.0" encoding="UTF-8"?>
<svg xmlns="http://www.w3.org/2000/svg" xmlns:xlink="http://www.w3.org/1999/xlink" width="553.85pt" height="232.93pt" viewBox="0 0 553.85 232.93" version="1.1">
<defs>
<clipPath id="clip1">
  <path d="M 0 0 L 553.851563 0 L 553.851563 232.929688 L 0 232.929688 Z M 0 0 "/>
</clipPath>
<clipPath id="clip2">
  <path d="M 38 101 L 187 101 L 187 110 L 38 110 Z M 38 101 "/>
</clipPath>
<clipPath id="clip3">
  <path d="M 38.824219 11.722656 L 186.480469 11.722656 L 186.480469 58.511719 L 146.824219 58.511719 L 140.855469 186.550781 L 84.734375 186.550781 L 79.054688 58.800781 L 38.824219 58.800781 Z M 38.824219 11.722656 "/>
</clipPath>
</defs>
<g id="surface1">
<g clip-path="url(#clip1)" clip-rule="nonzero">
<path style=" stroke:none;fill-rule:nonzero;fill:rgb(31.227112%,34.996033%,51.325989%);fill-opacity:1;" d="M 0 232.929688 L 553.851563 232.929688 L 553.851563 0.00390625 L 0 0.00390625 Z M 0 232.929688 "/>
</g>
<path style=" stroke:none;fill-rule:nonzero;fill:rgb(100%,100%,100%);fill-opacity:1;" d="M 28.8125 133.894531 L 196.683594 133.894531 L 196.683594 7.765625 L 28.8125 7.765625 Z M 28.8125 133.894531 "/>
<path style=" stroke:none;fill-rule:nonzero;fill:rgb(0%,27.058411%,58.430481%);fill-opacity:1;" d="M 28.8125 186.5625 L 196.683594 186.5625 L 196.683594 183.265625 L 28.8125 183.265625 Z M 28.8125 186.5625 "/>
<path style=" stroke:none;fill-rule:nonzero;fill:rgb(0%,27.058411%,58.430481%);fill-opacity:1;" d="M 28.8125 170.265625 L 196.683594 170.265625 L 196.683594 165.75 L 28.8125 165.75 Z M 28.8125 170.265625 "/>
<path style=" stroke:none;fill-rule:nonzero;fill:rgb(0%,27.058411%,58.430481%);fill-opacity:1;" d="M 28.8125 155.027344 L 196.683594 155.027344 L 196.683594 150.121094 L 28.8125 150.121094 Z M 28.8125 155.027344 "/>
<path style=" stroke:none;fill-rule:nonzero;fill:rgb(0%,27.058411%,58.430481%);fill-opacity:1;" d="M 28.8125 139.75 L 196.683594 139.75 L 196.683594 133.855469 L 28.8125 133.855469 Z M 28.8125 139.75 "/>
<path style=" stroke:none;fill-rule:nonzero;fill:rgb(0%,27.058411%,58.430481%);fill-opacity:1;" d="M 28.8125 124.804688 L 196.683594 124.804688 L 196.683594 117.820313 L 28.8125 117.820313 Z M 28.8125 124.804688 "/>
<path style=" stroke:none;fill-rule:nonzero;fill:rgb(0%,27.058411%,58.430481%);fill-opacity:1;" d="M 28.8125 109.222656 L 196.683594 109.222656 L 196.683594 101.964844 L 28.8125 101.964844 Z M 28.8125 109.222656 "/>
<path style=" stroke:none;fill-rule:nonzero;fill:rgb(0%,27.058411%,58.430481%);fill-opacity:1;" d="M 28.8125 94.117188 L 196.683594 94.117188 L 196.683594 85.332031 L 28.8125 85.332031 Z M 28.8125 94.117188 "/>
<path style=" stroke:none;fill-rule:nonzero;fill:rgb(0%,27.058411%,58.430481%);fill-opacity:1;" d="M 28.8125 78.683594 L 196.683594 78.683594 L 196.683594 69 L 28.8125 69 Z M 28.8125 78.683594 "/>
<path style=" stroke:none;fill-rule:nonzero;fill:rgb(0%,27.058411%,58.430481%);fill-opacity:1;" d="M 28.8125 63.507813 L 196.683594 63.507813 L 196.683594 53.460938 L 28.8125 53.460938 Z M 28.8125 63.507813 "/>
<path style=" stroke:none;fill-rule:nonzero;fill:rgb(0%,27.058411%,58.430481%);fill-opacity:1;" d="M 28.8125 48.839844 L 196.683594 48.839844 L 196.683594 37.273438 L 28.8125 37.273438 Z M 28.8125 48.839844 "/>
<path style=" stroke:none;fill-rule:nonzero;fill:rgb(0%,27.058411%,58.430481%);fill-opacity:1;" d="M 28.8125 33.492188 L 196.683594 33.492188 L 196.683594 21.011719 L 28.8125 21.011719 Z M 28.8125 33.492188 "/>
<path style=" stroke:none;fill-rule:nonzero;fill:rgb(0%,27.058411%,58.430481%);fill-opacity:1;" d="M 28.8125 15.90625 L 196.683594 15.90625 L 196.683594 5.996094 L 28.8125 5.996094 Z M 28.8125 15.90625 "/>
<path style=" stroke:none;fill-rule:nonzero;fill:rgb(100%,100%,100%);fill-opacity:1;" d="M 38.824219 11.722656 L 186.480469 11.722656 L 186.480469 58.511719 L 146.824219 58.511719 L 140.855469 186.550781 L 84.734375 186.550781 L 79.054688 58.800781 L 38.824219 58.800781 "/>
<g clip-path="url(#clip2)" clip-rule="nonzero">
<g clip-path="url(#clip3)" clip-rule="nonzero">
<path style=" stroke:none;fill-rule:nonzero;fill:rgb(100%,100%,100%);fill-opacity:1;" d="M 21.699219 109.222656 L 207.902344 109.222656 L 207.902344 101.726563 L 21.699219 101.726563 Z M 21.699219 109.222656 "/>
</g>
</g>
<path style=" stroke:none;fill-rule:nonzero;fill:rgb(100%,92.939758%,0%);fill-opacity:1;" d="M 28.8125 199.496094 L 196.683594 199.496094 L 196.683594 186.554688 L 28.8125 186.554688 Z M 28.8125 199.496094 "/>
<path style=" stroke:none;fill-rule:nonzero;fill:rgb(0%,27.058411%,58.430481%);fill-opacity:1;" d="M 28.8125 212.246094 L 196.683594 212.246094 L 196.683594 199.304688 L 28.8125 199.304688 Z M 28.8125 212.246094 "/>
<path style=" stroke:none;fill-rule:nonzero;fill:rgb(89.802551%,19.215393%,16.862488%);fill-opacity:1;" d="M 28.8125 224.996094 L 196.683594 224.996094 L 196.683594 212.058594 L 28.8125 212.058594 Z M 28.8125 224.996094 "/>
<path style=" stroke:none;fill-rule:nonzero;fill:rgb(100%,100%,100%);fill-opacity:1;" d="M 28.8125 183.265625 L 196.683594 183.265625 L 196.683594 170.277344 L 28.8125 170.277344 Z M 28.8125 183.265625 "/>
<path style=" stroke:none;fill-rule:nonzero;fill:rgb(100%,100%,100%);fill-opacity:1;" d="M 28.8125 165.636719 L 196.683594 165.636719 L 196.683594 155.0625 L 28.8125 155.0625 Z M 28.8125 165.636719 "/>
<path style=" stroke:none;fill-rule:nonzero;fill:rgb(100%,100%,100%);fill-opacity:1;" d="M 28.8125 149.945313 L 196.683594 149.945313 L 196.683594 139.796875 L 28.8125 139.796875 Z M 28.8125 149.945313 "/>
<path style=" stroke:none;fill-rule:nonzero;fill:rgb(100%,100%,100%);fill-opacity:1;" d="M 269.527344 144.929688 L 271.628906 130.304688 L 320.160156 130.304688 L 318.058594 145.109375 L 304.347656 146.300781 L 297.3125 196.109375 L 275.648438 196.109375 L 282.597656 146.207031 "/>
<path style=" stroke:none;fill-rule:nonzero;fill:rgb(100%,100%,100%);fill-opacity:1;" d="M 356.285156 178.105469 L 333.617188 178.105469 C 333.738281 178.898438 333.894531 179.476563 334.074219 179.839844 C 334.621094 181.058594 335.5625 182.03125 336.902344 182.765625 C 338.242188 183.496094 340.066406 183.859375 342.378906 183.859375 C 343.351563 183.859375 344.308594 183.832031 345.253906 183.769531 C 346.195313 183.707031 347.335938 183.558594 348.675781 183.3125 L 349.949219 183.039063 L 351.136719 182.765625 L 352.324219 182.402344 L 353.421875 194.648438 L 352.324219 195.011719 L 351.046875 195.375 C 349.703125 195.804688 348.152344 196.167969 346.386719 196.476563 C 344.621094 196.777344 343.101563 196.992188 341.820313 197.113281 C 332.628906 197.113281 325.675781 195.46875 320.953125 192.179688 C 316.234375 188.890625 313.878906 183.738281 313.878906 176.734375 C 313.878906 173.746094 314.335938 170.363281 315.246094 166.589844 C 316.648438 160.800781 319.191406 156.183594 322.878906 152.742188 C 326.566406 149.300781 331.089844 147.242188 336.453125 146.570313 C 338.035156 146.390625 339.496094 146.300781 340.839844 146.300781 C 352.292969 146.300781 358.023438 152.605469 358.023438 165.21875 C 358.023438 167.53125 357.777344 170.304688 357.289063 173.53125 C 357.167969 174.265625 357.03125 175.042969 356.878906 175.863281 C 356.726563 176.6875 356.527344 177.433594 356.285156 178.105469 M 341.296875 167.410156 L 341.480469 165.492188 L 341.480469 163.480469 C 341.480469 162.382813 341.390625 161.59375 341.207031 161.105469 C 340.605469 159.644531 339.609375 158.910156 338.222656 158.910156 C 337.5 158.910156 336.851563 159.109375 336.277344 159.507813 C 335.707031 159.902344 335.179688 160.417969 334.695313 161.058594 C 334.214844 161.699219 333.882813 162.445313 333.699219 163.296875 L 333.429688 164.394531 L 332.886719 167.410156 "/>
<path style=" stroke:none;fill-rule:nonzero;fill:rgb(100%,100%,100%);fill-opacity:1;" d="M 359.699219 195.300781 L 364.726563 181.574219 L 366.1875 181.996094 L 367.742188 182.308594 C 368.777344 182.515625 369.753906 182.691406 370.667969 182.828125 C 371.582031 182.96875 372.496094 183.039063 373.410156 183.039063 L 377.523438 183.039063 C 378.375 183.039063 379.0625 182.992188 379.578125 182.902344 C 380.097656 182.8125 380.414063 182.765625 380.539063 182.765625 C 380.964844 182.644531 381.421875 182.410156 381.90625 182.074219 C 382.398438 181.738281 382.640625 181.328125 382.640625 180.839844 C 382.640625 180.472656 382.488281 180.136719 382.183594 179.832031 C 382 179.589844 381.574219 179.375 380.902344 179.191406 L 379.257813 178.734375 L 378.800781 178.550781 L 377.0625 178.183594 L 375.328125 177.816406 C 374.230469 177.511719 373.472656 177.296875 373.042969 177.175781 C 372.191406 176.808594 371.550781 176.53125 371.125 176.351563 C 369.054688 175.433594 367.40625 173.96875 366.1875 171.953125 C 364.972656 169.9375 364.359375 167.617188 364.359375 164.988281 C 364.359375 162.976563 364.773438 160.957031 365.59375 158.941406 C 366.417969 156.925781 367.683594 154.972656 369.386719 153.078125 C 371.339844 150.941406 374.003906 149.246094 377.386719 147.992188 C 380.765625 146.742188 384.835938 146.113281 389.585938 146.113281 C 391.050781 146.113281 392.726563 146.207031 394.613281 146.390625 C 396.503906 146.570313 398.421875 146.816406 400.371094 147.121094 L 402.839844 147.578125 L 404.484375 147.945313 L 406.128906 148.402344 L 401.101563 161.652344 C 400.492188 161.472656 399.5625 161.226563 398.3125 160.921875 C 397.066406 160.617188 395.832031 160.34375 394.613281 160.101563 C 391.382813 159.609375 389.035156 159.367188 387.574219 159.367188 C 386.84375 159.367188 386.097656 159.445313 385.335938 159.597656 C 384.574219 159.746094 384.011719 159.976563 383.644531 160.28125 C 383.277344 160.585938 383.097656 160.921875 383.097656 161.285156 C 383.097656 161.898438 383.402344 162.355469 384.011719 162.65625 L 385.199219 163.113281 L 386.570313 163.480469 L 387.394531 163.753906 L 387.941406 163.9375 L 389.769531 164.394531 L 391.414063 164.945313 L 393.605469 165.582031 C 399.699219 167.652344 402.746094 171.433594 402.746094 176.914063 C 402.746094 179.167969 402.199219 181.667969 401.101563 184.410156 C 399.519531 188.613281 396.730469 191.859375 392.738281 194.144531 C 388.746094 196.429688 383.464844 197.570313 376.882813 197.570313 C 375.054688 197.570313 373.332031 197.511719 371.71875 197.390625 C 370.105469 197.269531 368.308594 197.039063 366.324219 196.707031 C 364.347656 196.375 363.082031 196.148438 362.53125 196.027344 C 361.984375 195.90625 361.039063 195.664063 359.699219 195.300781 "/>
<path style=" stroke:none;fill-rule:nonzero;fill:rgb(100%,100%,100%);fill-opacity:1;" d="M 411.492188 181.542969 C 411.492188 180.085938 411.507813 178.703125 411.539063 177.398438 C 411.566406 176.09375 411.765625 174.257813 412.132813 171.890625 C 413.410156 163.085938 415.910156 156.617188 419.628906 152.488281 C 423.34375 148.363281 428.613281 146.300781 435.4375 146.300781 C 443.421875 146.300781 449.269531 147.679688 452.984375 150.441406 C 456.703125 153.203125 458.5625 157.863281 458.5625 164.421875 C 458.5625 166.121094 458.4375 168.050781 458.195313 170.203125 C 457.949219 172.359375 457.554688 174.621094 457.007813 176.988281 C 455.546875 183.730469 453 188.8125 449.375 192.242188 C 445.75 195.675781 440.859375 197.390625 434.707031 197.390625 C 419.230469 197.390625 411.492188 192.105469 411.492188 181.542969 M 430.59375 182.964844 C 431.019531 184.355469 431.902344 185.050781 433.242188 185.050781 C 433.730469 185.050781 434.28125 184.867188 434.890625 184.507813 C 435.5 184.144531 436.0625 183.460938 436.578125 182.464844 C 437.097656 181.464844 437.570313 179.96875 437.996094 177.96875 L 438.363281 176.066406 L 439.550781 167.621094 L 439.734375 165.898438 L 439.734375 162.632813 C 439.734375 161.78125 439.671875 161.148438 439.550781 160.726563 C 439.0625 159.394531 438.148438 158.730469 436.808594 158.730469 C 436.261719 158.730469 435.773438 158.851563 435.347656 159.09375 C 434.554688 159.574219 433.914063 160.273438 433.429688 161.179688 C 432.9375 162.085938 432.480469 163.628906 432.058594 165.808594 L 431.691406 167.621094 L 430.503906 176.066406 L 430.230469 180.148438 C 430.230469 181.179688 430.351563 182.113281 430.59375 182.964844 "/>
<path style=" stroke:none;fill-rule:nonzero;fill:rgb(100%,100%,100%);fill-opacity:1;" d="M 462.117188 196.109375 L 468.972656 147.578125 L 487.617188 146.300781 L 487.066406 150.320313 L 488.074219 149.679688 C 491.121094 147.425781 494.195313 146.300781 497.304688 146.300781 C 498.15625 146.300781 499.039063 146.390625 499.953125 146.570313 L 496.300781 162.199219 L 493.832031 161.835938 C 493.28125 161.777344 492.492188 161.742188 491.453125 161.742188 C 490.234375 161.742188 488.804688 161.898438 487.160156 162.199219 L 485.332031 162.199219 L 480.578125 196.109375 "/>
<path style=" stroke:none;fill-rule:nonzero;fill:rgb(100%,100%,100%);fill-opacity:1;" d="M 500.542969 181.542969 C 500.542969 180.085938 500.558594 178.703125 500.589844 177.398438 C 500.617188 176.09375 500.816406 174.257813 501.183594 171.890625 C 502.464844 163.085938 504.960938 156.617188 508.679688 152.488281 C 512.394531 148.363281 517.664063 146.300781 524.488281 146.300781 C 532.472656 146.300781 538.320313 147.679688 542.035156 150.441406 C 545.753906 153.203125 547.609375 157.863281 547.609375 164.421875 C 547.609375 166.121094 547.488281 168.050781 547.246094 170.203125 C 547.003906 172.359375 546.605469 174.621094 546.058594 176.988281 C 544.597656 183.730469 542.050781 188.8125 538.425781 192.242188 C 534.800781 195.675781 529.910156 197.390625 523.757813 197.390625 C 508.28125 197.390625 500.542969 192.105469 500.542969 181.542969 M 519.644531 182.964844 C 520.070313 184.355469 520.953125 185.050781 522.296875 185.050781 C 522.78125 185.050781 523.332031 184.867188 523.9375 184.507813 C 524.550781 184.144531 525.113281 183.460938 525.632813 182.464844 C 526.148438 181.464844 526.621094 179.96875 527.046875 177.96875 L 527.414063 176.066406 L 528.601563 167.621094 L 528.785156 165.898438 L 528.785156 162.632813 C 528.785156 161.78125 528.722656 161.148438 528.601563 160.726563 C 528.113281 159.394531 527.199219 158.730469 525.859375 158.730469 C 525.3125 158.730469 524.824219 158.851563 524.398438 159.09375 C 523.605469 159.574219 522.964844 160.273438 522.476563 161.179688 C 521.988281 162.085938 521.53125 163.628906 521.105469 165.808594 L 520.742188 167.621094 L 519.554688 176.066406 L 519.277344 180.148438 C 519.277344 181.179688 519.398438 182.113281 519.644531 182.964844 "/>
<path style=" stroke:none;fill-rule:nonzero;fill:rgb(100%,100%,100%);fill-opacity:1;" d="M 232.339844 161.449219 L 233.21875 155.164063 L 239.660156 154.695313 L 236.40625 177.652344 L 230.183594 177.652344 L 230.308594 176.777344 L 230.058594 176.945313 L 229.652344 177.214844 L 228.902344 177.652344 C 228.109375 177.984375 227.359375 178.152344 226.648438 178.152344 C 225.523438 178.152344 224.53125 177.757813 223.679688 176.964844 C 222.824219 176.171875 222.261719 175.078125 221.988281 173.679688 C 221.925781 173.367188 221.886719 172.953125 221.863281 172.445313 C 221.84375 171.933594 221.832031 171.386719 221.832031 170.804688 C 221.832031 170.34375 221.867188 169.867188 221.941406 169.382813 C 222.015625 168.890625 222.125 168.386719 222.269531 167.863281 C 222.835938 165.550781 223.792969 163.734375 225.148438 162.421875 C 226.378906 161.210938 227.765625 160.609375 229.308594 160.609375 C 229.851563 160.609375 230.296875 160.648438 230.652344 160.734375 C 231.007813 160.816406 231.464844 160.992188 232.027344 161.265625 Z M 231.527344 166.078125 L 231.277344 166.078125 L 230.996094 166.109375 L 230.746094 166.144531 C 230.246094 166.246094 229.84375 166.5 229.542969 166.902344 C 229.238281 167.300781 228.996094 167.921875 228.808594 168.765625 C 228.722656 169.101563 228.660156 169.511719 228.621094 169.992188 C 228.578125 170.480469 228.558594 170.816406 228.558594 171.007813 C 228.558594 171.570313 228.652344 171.992188 228.839844 172.269531 C 229.027344 172.539063 229.316406 172.730469 229.714844 172.835938 L 230.777344 172.835938 L 231.714844 166.078125 "/>
<path style=" stroke:none;fill-rule:nonzero;fill:rgb(100%,100%,100%);fill-opacity:1;" d="M 253.582031 171.488281 L 245.828125 171.488281 C 245.867188 171.761719 245.921875 171.960938 245.980469 172.085938 C 246.171875 172.5 246.492188 172.835938 246.949219 173.085938 C 247.410156 173.335938 248.03125 173.460938 248.824219 173.460938 C 249.15625 173.460938 249.484375 173.449219 249.808594 173.429688 C 250.128906 173.410156 250.519531 173.359375 250.980469 173.273438 L 251.414063 173.179688 L 251.820313 173.085938 L 252.226563 172.960938 L 252.601563 177.152344 L 252.226563 177.277344 L 251.789063 177.402344 C 251.332031 177.550781 250.800781 177.675781 250.195313 177.777344 C 249.59375 177.882813 249.070313 177.953125 248.632813 177.996094 C 245.488281 177.996094 243.105469 177.433594 241.492188 176.308594 C 239.878906 175.183594 239.070313 173.417969 239.070313 171.023438 C 239.070313 170 239.226563 168.84375 239.539063 167.550781 C 240.019531 165.570313 240.890625 163.988281 242.152344 162.8125 C 243.414063 161.636719 244.960938 160.929688 246.796875 160.699219 C 247.339844 160.640625 247.839844 160.609375 248.296875 160.609375 C 252.21875 160.609375 254.179688 162.765625 254.179688 167.082031 C 254.179688 167.871094 254.09375 168.820313 253.925781 169.929688 L 253.785156 170.726563 C 253.734375 171.007813 253.667969 171.261719 253.582031 171.488281 M 248.453125 167.832031 L 248.515625 167.175781 L 248.515625 166.484375 C 248.515625 166.109375 248.484375 165.839844 248.425781 165.675781 C 248.21875 165.175781 247.878906 164.925781 247.402344 164.925781 C 247.15625 164.925781 246.933594 164.988281 246.738281 165.125 C 246.539063 165.261719 246.359375 165.441406 246.195313 165.65625 C 246.03125 165.875 245.917969 166.132813 245.855469 166.425781 L 245.761719 166.800781 L 245.574219 167.832031 "/>
<path style=" stroke:none;fill-rule:nonzero;fill:rgb(100%,100%,100%);fill-opacity:1;" d="M 254.261719 177.652344 L 257.417969 155.164063 L 263.800781 154.695313 L 260.578125 177.652344 Z M 254.261719 177.652344 "/>
<path style=" stroke:none;fill-rule:nonzero;fill:rgb(100%,100%,100%);fill-opacity:1;" d="M 220 113.171875 L 228.503906 52.542969 L 258.734375 52.542969 C 267.101563 52.542969 271.28125 56.070313 271.28125 63.128906 C 271.28125 64.089844 271.199219 65.191406 271.03125 66.433594 C 270.859375 67.675781 270.636719 69.003906 270.355469 70.414063 C 269.683594 73.40625 268.390625 75.695313 266.480469 77.273438 C 264.574219 78.855469 261.542969 80.070313 257.386719 80.917969 L 254.945313 81.257813 L 257.304688 81.257813 C 261.347656 81.59375 264.292969 82.660156 266.144531 84.457031 C 268 86.253906 268.925781 88.976563 268.925781 92.625 C 268.925781 94.980469 268.558594 97.648438 267.828125 100.625 C 266.820313 104.609375 264.757813 107.695313 261.640625 109.886719 C 258.523438 112.074219 254.441406 113.171875 249.390625 113.171875 Z M 244.335938 100.539063 C 246.019531 100.539063 247.183594 100.316406 247.832031 99.867188 C 248.476563 99.417969 248.882813 98.492188 249.050781 97.085938 L 249.472656 94.140625 L 249.640625 92.792969 C 249.695313 92.457031 249.726563 91.980469 249.726563 91.359375 C 249.726563 89.285156 248.996094 88.246094 247.535156 88.246094 L 243.324219 88.246094 L 241.640625 100.539063 Z M 247.113281 76.792969 C 248.910156 76.792969 250.0625 76.59375 250.566406 76.199219 C 251.074219 75.804688 251.382813 75.039063 251.492188 73.910156 L 251.660156 72.804688 L 252 70.683594 C 252.167969 69.722656 252.25 68.902344 252.25 68.226563 C 252.25 66.527344 251.550781 65.59375 250.148438 65.425781 L 246.523438 65.425781 L 244.925781 76.792969 "/>
<path style=" stroke:none;fill-rule:nonzero;fill:rgb(100%,100%,100%);fill-opacity:1;" d="M 300.453125 86.222656 L 300.707031 84.261719 C 300.765625 84.035156 300.789063 83.691406 300.789063 83.238281 C 300.789063 82.042969 300.371094 81.164063 299.527344 80.59375 C 298.6875 80.023438 297.199219 79.742188 295.066406 79.742188 C 294.054688 79.742188 292.917969 79.800781 291.652344 79.917969 C 290.390625 80.035156 288.582031 80.445313 286.222656 81.152344 L 284.792969 81.59375 L 282.855469 69.804688 L 284.707031 69.300781 L 286.8125 68.792969 C 288.105469 68.511719 289.449219 68.230469 290.855469 67.953125 C 293.15625 67.503906 295.179688 67.277344 296.917969 67.277344 C 304.722656 67.277344 310.195313 68.136719 313.339844 69.851563 C 316.480469 71.566406 318.054688 74.617188 318.054688 79.003906 C 318.054688 79.621094 318.011719 80.339844 317.929688 81.15625 C 317.84375 81.96875 317.773438 82.601563 317.71875 83.054688 L 313.507813 113.171875 L 297.507813 113.171875 L 296.917969 109.71875 L 295.90625 110.5625 C 293.492188 112.46875 290.996094 113.648438 288.414063 114.097656 C 287.289063 114.265625 286.253906 114.351563 285.296875 114.351563 C 281.761719 114.351563 278.96875 113.296875 276.917969 111.191406 C 274.867188 109.085938 273.84375 106.234375 273.84375 102.644531 L 273.84375 101.382813 C 273.957031 100.765625 274.015625 100.316406 274.015625 100.035156 L 274.773438 96.75 C 275.894531 92.988281 277.929688 90.054688 280.878906 87.949219 C 283.824219 85.84375 287.429688 84.792969 291.695313 84.792969 C 292.875 84.792969 293.804688 84.820313 294.476563 84.878906 C 295.148438 84.933594 296.105469 85.101563 297.339844 85.382813 L 298.6875 85.71875 Z M 298.6875 93.804688 C 297.058594 93.804688 295.78125 94.011719 294.855469 94.433594 C 293.929688 94.855469 293.183594 95.570313 292.621094 96.582031 C 292.0625 97.59375 291.78125 98.492188 291.78125 99.277344 C 291.78125 101.128906 292.765625 102.253906 294.730469 102.644531 L 296.664063 102.730469 L 298.097656 102.730469 L 299.359375 93.886719 "/>
<path style=" stroke:none;fill-rule:nonzero;fill:rgb(100%,100%,100%);fill-opacity:1;" d="M 320.75 113.171875 L 327.0625 68.457031 L 344.074219 67.277344 L 343.652344 70.054688 L 344.328125 69.71875 L 345.84375 69.128906 L 348.117188 68.371094 C 350.644531 67.472656 353 67.023438 355.1875 67.023438 C 358.503906 67.023438 361.042969 68.050781 362.8125 70.097656 C 364.578125 72.148438 365.464844 74.882813 365.464844 78.308594 L 365.128906 82.097656 L 360.742188 113.171875 L 343.625 113.171875 L 347.300781 86.722656 L 347.40625 85.964844 L 347.597656 84.621094 C 347.597656 82.152344 346.382813 81.03125 343.949219 81.257813 L 343.441406 81.339844 L 342.933594 81.425781 L 342.507813 81.507813 L 342.085938 81.675781 L 337.675781 113.171875 "/>
<path style=" stroke:none;fill-rule:nonzero;fill:rgb(100%,100%,100%);fill-opacity:1;" d="M 406.429688 69.128906 L 402.722656 81.257813 L 402.21875 81.070313 L 401.542969 80.796875 C 400.363281 80.429688 399.269531 80.246094 398.261719 80.246094 C 396.015625 80.246094 394.160156 81.121094 392.699219 82.867188 C 391.242188 84.613281 390.285156 87.234375 389.839844 90.730469 L 389.671875 92.507813 C 389.671875 97.972656 391.636719 100.707031 395.5625 100.707031 C 396.574219 100.707031 397.671875 100.539063 398.847656 100.203125 L 399.605469 99.949219 L 400.109375 99.78125 L 400.699219 99.527344 L 400.867188 112.074219 L 399.941406 112.328125 L 398.679688 112.75 C 397.332031 113.144531 396.109375 113.4375 395.019531 113.632813 C 393.921875 113.828125 392.996094 113.972656 392.238281 114.054688 C 391.480469 114.140625 390.820313 114.183594 390.261719 114.183594 L 388.996094 114.183594 C 383.605469 114.183594 379.382813 112.675781 376.324219 109.667969 C 373.265625 106.65625 371.734375 102.285156 371.734375 96.550781 C 371.734375 93.457031 372.183594 90.109375 373.082031 86.511719 C 374.710938 79.988281 377.671875 75.152344 381.964844 72.003906 C 386.261719 68.851563 391.605469 67.277344 398.007813 67.277344 C 399.074219 67.277344 400.027344 67.363281 400.867188 67.53125 C 401.710938 67.699219 402.835938 68.007813 404.238281 68.457031 L 405.332031 68.792969 "/>
<path style=" stroke:none;fill-rule:nonzero;fill:rgb(100%,100%,100%);fill-opacity:1;" d="M 408.605469 99.75 C 408.605469 98.40625 408.617188 97.132813 408.648438 95.933594 C 408.675781 94.730469 408.855469 93.039063 409.191406 90.855469 C 410.371094 82.746094 412.675781 76.789063 416.097656 72.984375 C 419.523438 69.179688 424.378906 67.277344 430.664063 67.277344 C 438.019531 67.277344 443.410156 68.550781 446.835938 71.09375 C 450.257813 73.640625 451.972656 77.933594 451.972656 83.976563 C 451.972656 85.542969 451.859375 87.316406 451.632813 89.304688 C 451.410156 91.289063 451.046875 93.371094 450.539063 95.554688 C 449.191406 101.761719 446.847656 106.445313 443.507813 109.609375 C 440.167969 112.769531 435.660156 114.351563 429.992188 114.351563 C 415.734375 114.351563 408.605469 109.484375 408.605469 99.75 M 426.203125 101.058594 C 426.597656 102.339844 427.410156 102.980469 428.644531 102.980469 C 429.09375 102.980469 429.601563 102.816406 430.160156 102.480469 C 430.722656 102.144531 431.242188 101.519531 431.71875 100.597656 C 432.195313 99.679688 432.632813 98.300781 433.023438 96.457031 L 433.359375 94.703125 L 434.453125 86.925781 L 434.625 85.335938 L 434.625 82.324219 C 434.625 81.546875 434.566406 80.960938 434.453125 80.570313 C 434.007813 79.34375 433.164063 78.730469 431.929688 78.730469 C 431.425781 78.730469 430.976563 78.839844 430.582031 79.0625 C 429.851563 79.511719 429.261719 80.152344 428.8125 80.988281 C 428.363281 81.824219 427.941406 83.246094 427.550781 85.253906 L 427.214844 86.925781 L 426.117188 94.703125 L 425.867188 98.464844 C 425.867188 99.414063 425.980469 100.277344 426.203125 101.058594 "/>
<path style=" stroke:none;fill-rule:nonzero;fill:rgb(100%,100%,100%);fill-opacity:1;" d="M 357.339844 204.601563 L 360.957031 204.601563 C 363.148438 204.601563 364.761719 205.015625 365.789063 205.847656 C 366.820313 206.675781 367.335938 207.972656 367.335938 209.734375 C 367.335938 210.621094 367.164063 211.382813 366.816406 212.011719 C 366.472656 212.644531 365.953125 213.15625 365.265625 213.558594 C 366.308594 213.992188 367.09375 214.605469 367.617188 215.394531 C 368.140625 216.179688 368.402344 217.144531 368.402344 218.28125 C 368.402344 220.257813 367.855469 221.707031 366.769531 222.632813 C 365.683594 223.558594 363.972656 224.019531 361.636719 224.019531 L 357.339844 224.019531 Z M 359.167969 206.457031 L 359.171875 212.984375 L 360.316406 212.984375 C 362.199219 212.984375 363.519531 212.726563 364.269531 212.203125 C 365.023438 211.6875 365.398438 210.835938 365.398438 209.652344 C 365.398438 208.542969 365.03125 207.734375 364.304688 207.222656 C 363.574219 206.710938 362.410156 206.457031 360.808594 206.457031 Z M 359.171875 214.84375 L 359.167969 222.160156 L 361.851563 222.160156 C 363.421875 222.160156 364.585938 221.863281 365.335938 221.269531 C 366.085938 220.675781 366.464844 219.757813 366.464844 218.523438 C 366.464844 217.285156 366.078125 216.363281 365.316406 215.757813 C 364.550781 215.148438 363.398438 214.84375 361.851563 214.84375 "/>
<path style=" stroke:none;fill-rule:nonzero;fill:rgb(100%,100%,100%);fill-opacity:1;" d="M 383.320313 221.695313 C 382.734375 222.539063 381.941406 223.199219 380.9375 223.683594 C 379.9375 224.160156 378.859375 224.402344 377.703125 224.402344 C 375.554688 224.402344 373.761719 223.664063 372.328125 222.195313 C 370.898438 220.722656 370.183594 218.90625 370.183594 216.746094 C 370.183594 214.550781 370.914063 212.710938 372.378906 211.238281 C 373.839844 209.761719 375.667969 209.023438 377.863281 209.023438 C 378.996094 209.023438 380.03125 209.253906 380.972656 209.710938 C 381.914063 210.167969 382.699219 210.828125 383.320313 211.691406 L 383.320313 209.351563 L 385.148438 209.351563 L 385.148438 224.019531 L 383.320313 224.019531 Z M 383.320313 216.585938 C 383.320313 215.03125 382.765625 213.671875 381.652344 212.511719 C 380.539063 211.351563 379.257813 210.773438 377.808594 210.773438 C 376.234375 210.773438 374.890625 211.351563 373.78125 212.511719 C 372.675781 213.671875 372.121094 215.109375 372.121094 216.824219 C 372.121094 218.460938 372.675781 219.84375 373.777344 220.96875 C 374.882813 222.09375 376.207031 222.652344 377.753906 222.652344 C 379.25 222.652344 380.550781 222.0625 381.660156 220.871094 C 382.769531 219.6875 383.320313 218.257813 383.320313 216.585938 "/>
<path style=" stroke:none;fill-rule:nonzero;fill:rgb(100%,100%,100%);fill-opacity:1;" d="M 388.128906 209.351563 L 389.957031 209.351563 L 389.957031 211.015625 C 390.535156 210.347656 391.203125 209.851563 391.964844 209.53125 C 392.726563 209.210938 393.597656 209.050781 394.574219 209.050781 C 395.648438 209.050781 396.609375 209.25 397.449219 209.652344 C 398.289063 210.054688 398.953125 210.625 399.445313 211.371094 C 399.78125 211.898438 400.023438 212.515625 400.171875 213.222656 C 400.316406 213.929688 400.394531 214.972656 400.394531 216.351563 L 400.394531 224.019531 L 398.535156 224.019531 L 398.535156 215.804688 C 398.535156 214.070313 398.203125 212.8125 397.539063 212.027344 C 396.878906 211.246094 395.816406 210.855469 394.359375 210.855469 C 393.507813 210.855469 392.757813 211.027344 392.109375 211.367188 C 391.46875 211.710938 390.957031 212.199219 390.585938 212.84375 C 390.355469 213.242188 390.191406 213.695313 390.097656 214.207031 C 390.003906 214.722656 389.957031 215.609375 389.957031 216.882813 L 389.957031 224.019531 L 388.128906 224.019531 "/>
<path style=" stroke:none;fill-rule:nonzero;fill:rgb(100%,100%,100%);fill-opacity:1;" d="M 415.097656 213.859375 C 414.519531 212.789063 413.8125 211.996094 412.980469 211.484375 C 412.148438 210.976563 411.160156 210.71875 410.011719 210.71875 C 408.5 210.71875 407.21875 211.289063 406.160156 212.4375 C 405.109375 213.582031 404.582031 215 404.582031 216.691406 C 404.582031 218.382813 405.109375 219.792969 406.171875 220.925781 C 407.230469 222.0625 408.535156 222.625 410.09375 222.625 C 411.230469 222.625 412.238281 222.347656 413.109375 221.785156 C 413.980469 221.230469 414.644531 220.445313 415.097656 219.433594 L 417.175781 219.433594 C 416.605469 221.023438 415.710938 222.25 414.492188 223.121094 C 413.277344 223.992188 411.839844 224.429688 410.1875 224.429688 C 408.0625 224.429688 406.269531 223.675781 404.808594 222.167969 C 403.347656 220.660156 402.613281 218.84375 402.613281 216.71875 C 402.613281 214.550781 403.355469 212.710938 404.835938 211.203125 C 406.3125 209.695313 408.117188 208.941406 410.238281 208.941406 C 411.832031 208.941406 413.234375 209.371094 414.445313 210.230469 C 415.660156 211.09375 416.570313 212.300781 417.175781 213.859375 "/>
<path style=" stroke:none;fill-rule:nonzero;fill:rgb(100%,100%,100%);fill-opacity:1;" d="M 419.128906 216.699219 C 419.128906 214.550781 419.863281 212.707031 421.339844 211.179688 C 422.816406 209.652344 424.5625 208.886719 426.578125 208.886719 C 428.703125 208.886719 430.515625 209.640625 432.015625 211.140625 C 433.511719 212.644531 434.261719 214.433594 434.261719 216.511719 C 434.261719 218.695313 433.527344 220.566406 432.0625 222.109375 C 430.59375 223.65625 428.816406 224.429688 426.726563 224.429688 C 424.605469 224.429688 422.804688 223.671875 421.335938 222.15625 C 419.863281 220.644531 419.128906 218.820313 419.128906 216.699219 M 421.09375 216.664063 C 421.09375 218.355469 421.632813 219.769531 422.710938 220.910156 C 423.785156 222.054688 425.125 222.625 426.726563 222.625 C 428.304688 222.625 429.625 222.054688 430.691406 220.910156 C 431.761719 219.769531 432.292969 218.347656 432.292969 216.640625 C 432.292969 214.902344 431.753906 213.480469 430.671875 212.363281 C 429.589844 211.246094 428.21875 210.691406 426.554688 210.691406 C 425.058594 210.691406 423.773438 211.265625 422.703125 212.410156 C 421.632813 213.558594 421.09375 214.976563 421.09375 216.664063 "/>
<path style=" stroke:none;fill-rule:nonzero;fill:rgb(100%,100%,100%);fill-opacity:1;" d="M 444.230469 204.601563 L 446.140625 204.601563 L 446.140625 216.878906 C 446.140625 217.828125 446.179688 218.539063 446.253906 219.015625 C 446.328125 219.484375 446.453125 219.902344 446.632813 220.265625 C 446.980469 221.003906 447.488281 221.582031 448.160156 222 C 448.832031 222.417969 449.589844 222.625 450.4375 222.625 C 451.902344 222.625 452.988281 222.125 453.691406 221.125 C 454.394531 220.125 454.742188 218.578125 454.742188 216.480469 L 454.742188 204.601563 L 456.628906 204.601563 L 456.628906 216.945313 C 456.628906 219.460938 456.128906 221.339844 455.128906 222.574219 C 454.128906 223.8125 452.605469 224.429688 450.566406 224.429688 C 448.390625 224.429688 446.785156 223.824219 445.765625 222.613281 C 444.738281 221.40625 444.230469 219.515625 444.230469 216.945313 "/>
<path style=" stroke:none;fill-rule:nonzero;fill:rgb(100%,100%,100%);fill-opacity:1;" d="M 459.644531 209.351563 L 461.476563 209.351563 L 461.476563 211.015625 C 462.054688 210.347656 462.722656 209.851563 463.480469 209.53125 C 464.242188 209.210938 465.113281 209.050781 466.09375 209.050781 C 467.167969 209.050781 468.125 209.25 468.96875 209.652344 C 469.808594 210.054688 470.472656 210.625 470.960938 211.371094 C 471.300781 211.898438 471.542969 212.515625 471.6875 213.222656 C 471.835938 213.929688 471.90625 214.972656 471.90625 216.351563 L 471.90625 224.019531 L 470.050781 224.019531 L 470.050781 215.804688 C 470.050781 214.070313 469.722656 212.8125 469.058594 212.027344 C 468.394531 211.246094 467.335938 210.855469 465.878906 210.855469 C 465.023438 210.855469 464.273438 211.027344 463.628906 211.367188 C 462.984375 211.710938 462.476563 212.199219 462.101563 212.84375 C 461.871094 213.242188 461.707031 213.695313 461.613281 214.207031 C 461.523438 214.722656 461.476563 215.609375 461.476563 216.882813 L 461.476563 224.019531 L 459.644531 224.019531 "/>
<path style=" stroke:none;fill-rule:nonzero;fill:rgb(100%,100%,100%);fill-opacity:1;" d="M 474.898438 209.351563 L 476.78125 209.351563 L 476.78125 224.019531 L 474.898438 224.019531 Z M 476.78125 207.632813 L 474.894531 207.632813 L 474.894531 204.601563 L 476.78125 204.601563 Z M 476.78125 207.632813 "/>
<path style=" stroke:none;fill-rule:nonzero;fill:rgb(100%,100%,100%);fill-opacity:1;" d="M 485.53125 224.019531 L 483.808594 224.019531 L 478.074219 209.351563 L 480.0625 209.351563 L 484.757813 221.179688 L 489.496094 209.351563 L 491.539063 209.351563 "/>
<path style=" stroke:none;fill-rule:nonzero;fill:rgb(100%,100%,100%);fill-opacity:1;" d="M 507.238281 217.273438 L 493.988281 217.273438 C 494.105469 218.871094 494.6875 220.160156 495.726563 221.148438 C 496.769531 222.136719 498.066406 222.625 499.625 222.625 C 500.726563 222.625 501.722656 222.339844 502.601563 221.769531 C 503.480469 221.195313 504.164063 220.398438 504.644531 219.375 L 506.773438 219.375 C 506.097656 221.003906 505.148438 222.25 503.929688 223.121094 C 502.703125 223.992188 501.289063 224.429688 499.679688 224.429688 C 497.546875 224.429688 495.742188 223.667969 494.265625 222.148438 C 492.789063 220.625 492.050781 218.800781 492.050781 216.664063 C 492.050781 214.433594 492.773438 212.585938 494.21875 211.128906 C 495.660156 209.671875 497.511719 208.941406 499.757813 208.941406 C 501.964844 208.941406 503.761719 209.699219 505.152344 211.21875 C 506.542969 212.734375 507.238281 214.707031 507.238281 217.136719 Z M 505.160156 215.636719 C 504.808594 214.003906 504.152344 212.777344 503.199219 211.953125 C 502.246094 211.128906 501.007813 210.71875 499.476563 210.71875 C 498.054688 210.71875 496.847656 211.160156 495.859375 212.042969 C 494.871094 212.933594 494.265625 214.125 494.042969 215.636719 "/>
<path style=" stroke:none;fill-rule:nonzero;fill:rgb(100%,100%,100%);fill-opacity:1;" d="M 511.296875 224.019531 L 509.386719 224.019531 L 509.386719 209.351563 L 511.160156 209.351563 L 511.160156 211.050781 C 511.621094 210.398438 512.125 209.917969 512.671875 209.613281 C 513.214844 209.3125 513.847656 209.152344 514.574219 209.132813 L 514.589844 211.183594 C 513.410156 211.289063 512.566406 211.644531 512.058594 212.242188 C 511.550781 212.84375 511.296875 213.816406 511.296875 215.167969 "/>
<path style=" stroke:none;fill-rule:nonzero;fill:rgb(100%,100%,100%);fill-opacity:1;" d="M 515.328125 219.402344 L 517.265625 219.402344 L 517.265625 219.457031 C 517.265625 220.371094 517.527344 221.128906 518.054688 221.726563 C 518.574219 222.324219 519.222656 222.625 519.996094 222.625 C 520.730469 222.625 521.347656 222.398438 521.835938 221.933594 C 522.320313 221.472656 522.566406 220.890625 522.566406 220.1875 C 522.566406 219.484375 522.371094 218.921875 521.984375 218.492188 C 521.597656 218.070313 520.898438 217.667969 519.882813 217.292969 C 518.257813 216.71875 517.199219 216.125 516.699219 215.523438 C 516.203125 214.914063 515.953125 214.105469 515.953125 213.09375 C 515.953125 211.945313 516.371094 210.972656 517.203125 210.167969 C 518.03125 209.367188 519.039063 208.96875 520.222656 208.96875 C 521.476563 208.96875 522.472656 209.324219 523.210938 210.035156 C 523.945313 210.746094 524.34375 211.738281 524.398438 213.011719 L 522.375 213.011719 C 522.328125 212.320313 522.109375 211.78125 521.714844 211.402344 C 521.320313 211.019531 520.777344 210.824219 520.097656 210.824219 C 519.480469 210.824219 518.972656 211.03125 518.5625 211.445313 C 518.152344 211.859375 517.949219 212.371094 517.949219 212.984375 C 517.949219 213.421875 518.035156 213.789063 518.203125 214.085938 C 518.371094 214.386719 518.652344 214.652344 519.042969 214.894531 C 519.398438 215.113281 519.917969 215.328125 520.601563 215.53125 C 521.28125 215.738281 521.738281 215.890625 521.96875 215.984375 C 522.886719 216.375 523.5625 216.898438 523.992188 217.546875 C 524.425781 218.195313 524.640625 219.023438 524.640625 220.027344 C 524.640625 221.289063 524.199219 222.335938 523.320313 223.160156 C 522.4375 223.988281 521.324219 224.402344 519.972656 224.402344 C 518.59375 224.402344 517.484375 223.949219 516.648438 223.050781 C 515.8125 222.148438 515.371094 220.933594 515.328125 219.402344 "/>
<path style=" stroke:none;fill-rule:nonzero;fill:rgb(100%,100%,100%);fill-opacity:1;" d="M 539.273438 221.695313 C 538.6875 222.539063 537.894531 223.199219 536.894531 223.683594 C 535.894531 224.160156 534.816406 224.402344 533.660156 224.402344 C 531.507813 224.402344 529.71875 223.664063 528.285156 222.195313 C 526.855469 220.722656 526.136719 218.90625 526.136719 216.746094 C 526.136719 214.550781 526.867188 212.714844 528.332031 211.238281 C 529.792969 209.761719 531.625 209.023438 533.820313 209.023438 C 534.949219 209.023438 535.984375 209.253906 536.929688 209.710938 C 537.871094 210.167969 538.652344 210.828125 539.273438 211.691406 L 539.273438 209.351563 L 541.105469 209.351563 L 541.105469 224.019531 L 539.273438 224.019531 Z M 539.273438 216.585938 C 539.273438 215.03125 538.71875 213.671875 537.605469 212.511719 C 536.492188 211.351563 535.214844 210.773438 533.761719 210.773438 C 532.1875 210.773438 530.847656 211.351563 529.738281 212.511719 C 528.632813 213.671875 528.074219 215.109375 528.074219 216.824219 C 528.074219 218.460938 528.628906 219.84375 529.730469 220.96875 C 530.835938 222.09375 532.160156 222.652344 533.710938 222.652344 C 535.203125 222.652344 536.507813 222.0625 537.613281 220.871094 C 538.722656 219.6875 539.273438 218.257813 539.273438 216.585938 "/>
<path style=" stroke:none;fill-rule:nonzero;fill:rgb(100%,100%,100%);fill-opacity:1;" d="M 544.109375 224.019531 L 545.996094 224.019531 L 545.996094 204.601563 L 544.109375 204.601563 Z M 544.109375 224.019531 "/>
<path style=" stroke:none;fill-rule:nonzero;fill:rgb(100%,100%,100%);fill-opacity:1;" d="M 66.90625 210.761719 L 63.640625 208.390625 L 60.375 210.761719 L 61.621094 206.925781 L 58.355469 204.550781 L 62.394531 204.550781 L 63.640625 200.710938 L 64.886719 204.550781 L 68.925781 204.550781 L 65.660156 206.925781 "/>
<path style=" stroke:none;fill-rule:nonzero;fill:rgb(100%,100%,100%);fill-opacity:1;" d="M 86.609375 210.761719 L 83.34375 208.390625 L 80.078125 210.761719 L 81.324219 206.925781 L 78.058594 204.550781 L 82.09375 204.550781 L 83.34375 200.710938 L 84.589844 204.550781 L 88.625 204.550781 L 85.359375 206.925781 "/>
<path style=" stroke:none;fill-rule:nonzero;fill:rgb(100%,100%,100%);fill-opacity:1;" d="M 106.308594 210.761719 L 103.042969 208.390625 L 99.777344 210.761719 L 101.023438 206.925781 L 97.761719 204.550781 L 101.796875 204.550781 L 103.042969 200.710938 L 104.289063 204.550781 L 108.328125 204.550781 L 105.0625 206.925781 "/>
<path style=" stroke:none;fill-rule:nonzero;fill:rgb(100%,100%,100%);fill-opacity:1;" d="M 126.011719 210.761719 L 122.746094 208.390625 L 119.480469 210.761719 L 120.726563 206.925781 L 117.460938 204.550781 L 121.496094 204.550781 L 122.746094 200.710938 L 123.992188 204.550781 L 128.027344 204.550781 L 124.761719 206.925781 "/>
<path style=" stroke:none;fill-rule:nonzero;fill:rgb(100%,100%,100%);fill-opacity:1;" d="M 145.710938 210.761719 L 142.445313 208.390625 L 139.179688 210.761719 L 140.429688 206.925781 L 137.160156 204.550781 L 141.199219 204.550781 L 142.445313 200.710938 L 143.695313 204.550781 L 147.730469 204.550781 L 144.464844 206.925781 "/>
<path style=" stroke:none;fill-rule:nonzero;fill:rgb(100%,100%,100%);fill-opacity:1;" d="M 165.414063 210.761719 L 162.148438 208.390625 L 158.882813 210.761719 L 160.128906 206.925781 L 156.863281 204.550781 L 160.898438 204.550781 L 162.148438 200.710938 L 163.394531 204.550781 L 167.433594 204.550781 L 164.164063 206.925781 "/>
<path style=" stroke:none;fill-rule:nonzero;fill:rgb(100%,100%,100%);fill-opacity:1;" d="M 185.113281 210.761719 L 181.847656 208.390625 L 178.585938 210.761719 L 179.832031 206.925781 L 176.566406 204.550781 L 180.601563 204.550781 L 181.847656 200.710938 L 183.097656 204.550781 L 187.132813 204.550781 L 183.867188 206.925781 "/>
<path style=" stroke:none;fill-rule:nonzero;fill:rgb(100%,100%,100%);fill-opacity:1;" d="M 47.386719 210.761719 L 44.121094 208.390625 L 40.855469 210.761719 L 42.105469 206.925781 L 38.839844 204.550781 L 42.875 204.550781 L 44.121094 200.710938 L 45.367188 204.550781 L 49.40625 204.550781 L 46.140625 206.925781 "/>
<path style=" stroke:none;fill-rule:nonzero;fill:rgb(100%,100%,100%);fill-opacity:1;" d="M 15.238281 126.4375 L 16.054688 126.4375 L 16.054688 129.199219 L 15.238281 129.199219 Z M 18.328125 136.125 L 9.972656 131.898438 L 9.972656 136.375 L 9.257813 136.375 L 9.257813 130.679688 L 18.730469 135.347656 Z M 13.453125 142.402344 C 13.300781 142.867188 13.039063 143.230469 12.671875 143.488281 C 12.304688 143.746094 11.863281 143.875 11.351563 143.875 C 10.6875 143.875 10.144531 143.632813 9.714844 143.148438 C 9.289063 142.660156 9.074219 142.03125 9.074219 141.265625 C 9.074219 140.476563 9.292969 139.84375 9.726563 139.375 C 10.15625 138.90625 10.734375 138.671875 11.453125 138.671875 C 11.929688 138.671875 12.335938 138.796875 12.675781 139.046875 C 13.015625 139.292969 13.273438 139.65625 13.453125 140.136719 C 13.601563 139.574219 13.894531 139.136719 14.335938 138.816406 C 14.777344 138.492188 15.308594 138.332031 15.929688 138.332031 C 16.785156 138.332031 17.460938 138.597656 17.953125 139.117188 C 18.441406 139.640625 18.6875 140.355469 18.6875 141.269531 C 18.6875 142.179688 18.445313 142.902344 17.957031 143.429688 C 17.464844 143.957031 16.796875 144.226563 15.953125 144.226563 C 15.320313 144.226563 14.78125 144.066406 14.339844 143.742188 C 13.894531 143.417969 13.601563 142.976563 13.453125 142.402344 M 13.109375 141.25 C 13.109375 140.71875 12.964844 140.300781 12.671875 139.988281 C 12.382813 139.683594 11.984375 139.527344 11.476563 139.527344 C 10.96875 139.527344 10.566406 139.6875 10.265625 140 C 9.964844 140.316406 9.816406 140.734375 9.816406 141.265625 C 9.816406 141.789063 9.964844 142.210938 10.265625 142.523438 C 10.566406 142.835938 10.96875 142.992188 11.476563 142.992188 C 11.980469 142.992188 12.378906 142.835938 12.671875 142.523438 C 12.964844 142.210938 13.109375 141.785156 13.109375 141.25 M 17.9375 141.277344 C 17.9375 140.640625 17.757813 140.132813 17.394531 139.761719 C 17.035156 139.390625 16.539063 139.203125 15.914063 139.203125 C 15.28125 139.203125 14.78125 139.390625 14.414063 139.765625 C 14.046875 140.136719 13.863281 140.644531 13.863281 141.277344 C 13.863281 141.917969 14.046875 142.425781 14.410156 142.789063 C 14.777344 143.15625 15.277344 143.34375 15.914063 143.34375 C 16.542969 143.34375 17.039063 143.160156 17.398438 142.792969 C 17.757813 142.429688 17.9375 141.925781 17.9375 141.277344 M 18.441406 149.039063 L 10.011719 149.039063 L 10.011719 150.714844 L 9.257813 150.3125 L 9.257813 148.222656 L 18.441406 148.222656 Z M 12.851563 157.746094 C 12.75 157.507813 12.671875 157.277344 12.617188 157.050781 C 12.566406 156.820313 12.539063 156.59375 12.539063 156.371094 C 12.539063 155.492188 12.808594 154.785156 13.347656 154.246094 C 13.886719 153.707031 14.589844 153.4375 15.460938 153.4375 C 16.425781 153.4375 17.210938 153.730469 17.804688 154.308594 C 18.402344 154.886719 18.703125 155.640625 18.703125 156.574219 C 18.703125 157.230469 18.554688 157.792969 18.261719 158.265625 C 17.96875 158.738281 17.523438 159.132813 16.921875 159.445313 L 16.433594 158.78125 C 16.949219 158.515625 17.332031 158.195313 17.570313 157.832031 C 17.816406 157.472656 17.9375 157.039063 17.9375 156.535156 C 17.9375 155.859375 17.71875 155.316406 17.277344 154.910156 C 16.839844 154.511719 16.25 154.308594 15.511719 154.308594 C 14.820313 154.308594 14.273438 154.515625 13.871094 154.925781 C 13.46875 155.335938 13.265625 155.898438 13.265625 156.605469 C 13.265625 156.996094 13.320313 157.355469 13.433594 157.675781 C 13.546875 157.996094 13.714844 158.277344 13.9375 158.523438 L 13.914063 158.78125 L 9.257813 157.601563 L 9.257813 153.855469 L 9.972656 153.855469 L 9.972656 157.019531 Z M 18.6875 163.710938 C 18.6875 164.660156 18.261719 165.410156 17.410156 165.964844 C 16.558594 166.515625 15.382813 166.789063 13.890625 166.789063 C 12.390625 166.789063 11.214844 166.515625 10.359375 165.964844 C 9.503906 165.410156 9.074219 164.652344 9.074219 163.6875 C 9.074219 162.722656 9.5 161.96875 10.351563 161.421875 C 11.203125 160.875 12.382813 160.601563 13.890625 160.601563 C 15.410156 160.601563 16.589844 160.875 17.429688 161.421875 C 18.269531 161.96875 18.6875 162.730469 18.6875 163.710938 M 13.902344 165.945313 C 15.164063 165.945313 16.152344 165.746094 16.867188 165.347656 C 17.582031 164.945313 17.9375 164.394531 17.9375 163.691406 C 17.9375 162.953125 17.59375 162.394531 16.902344 162.015625 C 16.214844 161.636719 15.207031 161.445313 13.878906 161.445313 C 12.5625 161.445313 11.5625 161.636719 10.867188 162.027344 C 10.175781 162.410156 9.828125 162.976563 9.828125 163.714844 C 9.828125 164.410156 10.1875 164.957031 10.910156 165.355469 C 11.628906 165.746094 12.625 165.945313 13.902344 165.945313 M 18.6875 171.1875 C 18.6875 172.136719 18.261719 172.886719 17.410156 173.4375 C 16.558594 173.988281 15.382813 174.265625 13.890625 174.265625 C 12.390625 174.265625 11.214844 173.988281 10.359375 173.4375 C 9.503906 172.886719 9.074219 172.125 9.074219 171.160156 C 9.074219 170.195313 9.5 169.441406 10.351563 168.894531 C 11.203125 168.347656 12.382813 168.074219 13.890625 168.074219 C 15.410156 168.074219 16.589844 168.347656 17.429688 168.894531 C 18.269531 169.441406 18.6875 170.203125 18.6875 171.1875 M 13.902344 173.417969 C 15.164063 173.417969 16.152344 173.222656 16.867188 172.820313 C 17.582031 172.421875 17.9375 171.867188 17.9375 171.160156 C 17.9375 170.429688 17.59375 169.867188 16.902344 169.488281 C 16.214844 169.109375 15.207031 168.917969 13.878906 168.917969 C 12.5625 168.917969 11.5625 169.109375 10.867188 169.496094 C 10.175781 169.886719 9.828125 170.449219 9.828125 171.1875 C 9.828125 171.886719 10.1875 172.433594 10.910156 172.824219 C 11.628906 173.222656 12.625 173.417969 13.902344 173.417969 M 18.6875 178.65625 C 18.6875 179.609375 18.261719 180.359375 17.410156 180.910156 C 16.558594 181.460938 15.382813 181.734375 13.890625 181.734375 C 12.390625 181.734375 11.214844 181.460938 10.359375 180.910156 C 9.503906 180.359375 9.074219 179.601563 9.074219 178.632813 C 9.074219 177.667969 9.5 176.914063 10.351563 176.367188 C 11.203125 175.820313 12.382813 175.550781 13.890625 175.550781 C 15.410156 175.550781 16.589844 175.820313 17.429688 176.367188 C 18.269531 176.914063 18.6875 177.679688 18.6875 178.65625 M 13.902344 180.894531 C 15.164063 180.894531 16.152344 180.695313 16.867188 180.292969 C 17.582031 179.894531 17.9375 179.34375 17.9375 178.636719 C 17.9375 177.902344 17.59375 177.34375 16.902344 176.964844 C 16.214844 176.582031 15.207031 176.394531 13.878906 176.394531 C 12.5625 176.394531 11.5625 176.585938 10.867188 176.972656 C 10.175781 177.359375 9.828125 177.921875 9.828125 178.660156 C 9.828125 179.359375 10.1875 179.90625 10.910156 180.300781 C 11.628906 180.695313 12.625 180.894531 13.902344 180.894531 M 17.714844 183.449219 L 18.441406 183.449219 L 18.441406 189.402344 L 16.253906 187.402344 L 15.589844 186.796875 C 13.792969 185.148438 12.5 184.320313 11.710938 184.320313 C 11.152344 184.320313 10.699219 184.511719 10.351563 184.886719 C 10.003906 185.265625 9.828125 185.757813 9.828125 186.367188 C 9.828125 186.984375 10.023438 187.480469 10.414063 187.839844 C 10.804688 188.199219 11.339844 188.382813 12.023438 188.382813 L 12.023438 189.210938 C 11.050781 189.210938 10.355469 188.949219 9.84375 188.421875 C 9.332031 187.898438 9.074219 187.183594 9.074219 186.277344 C 9.074219 185.410156 9.3125 184.714844 9.78125 184.195313 C 10.253906 183.671875 10.878906 183.410156 11.660156 183.410156 C 12.648438 183.410156 13.917969 184.140625 15.472656 185.59375 L 17.714844 187.691406 Z M 15.238281 190.726563 L 16.054688 190.726563 L 16.054688 193.488281 L 15.238281 193.488281 Z M 11.503906 196.460938 C 10.917969 196.839844 10.476563 197.300781 10.175781 197.851563 C 9.875 198.398438 9.726563 199.019531 9.726563 199.703125 C 9.726563 200.855469 10.113281 201.789063 10.890625 202.515625 C 11.667969 203.234375 12.675781 203.597656 13.914063 203.597656 C 14.46875 203.597656 14.988281 203.5 15.476563 203.308594 C 15.96875 203.117188 16.402344 202.835938 16.78125 202.46875 C 17.160156 202.097656 17.441406 201.683594 17.628906 201.222656 C 17.816406 200.761719 17.910156 200.257813 17.910156 199.703125 C 17.910156 198.664063 17.605469 197.820313 16.992188 197.167969 C 16.378906 196.515625 15.578125 196.179688 14.589844 196.164063 L 14.589844 199.363281 L 13.863281 199.363281 L 13.863281 195.242188 C 15.441406 195.242188 16.601563 195.648438 17.4375 196.453125 C 18.273438 197.261719 18.6875 198.371094 18.6875 199.785156 C 18.6875 201.191406 18.242188 202.328125 17.347656 203.199219 C 16.453125 204.070313 15.277344 204.507813 13.824219 204.507813 C 13.15625 204.507813 12.527344 204.394531 11.933594 204.175781 C 11.339844 203.953125 10.824219 203.640625 10.386719 203.226563 C 9.90625 202.777344 9.550781 202.273438 9.3125 201.707031 C 9.078125 201.144531 8.960938 200.515625 8.960938 199.820313 C 8.960938 198.878906 9.128906 198.070313 9.46875 197.402344 C 9.808594 196.730469 10.308594 196.210938 10.96875 195.847656 Z M 13.628906 211.605469 C 13.445313 211.605469 13.292969 211.539063 13.167969 211.417969 C 13.042969 211.292969 12.980469 211.140625 12.980469 210.957031 C 12.980469 210.777344 13.042969 210.621094 13.167969 210.496094 C 13.292969 210.367188 13.445313 210.308594 13.628906 210.308594 C 13.808594 210.308594 13.960938 210.367188 14.089844 210.496094 C 14.214844 210.621094 14.277344 210.777344 14.277344 210.957031 C 14.277344 211.140625 14.214844 211.292969 14.089844 211.417969 C 13.960938 211.539063 13.808594 211.605469 13.628906 211.605469 M 17.910156 211.605469 C 17.730469 211.605469 17.574219 211.539063 17.449219 211.417969 C 17.324219 211.292969 17.261719 211.140625 17.261719 210.957031 C 17.261719 210.777344 17.324219 210.621094 17.449219 210.496094 C 17.574219 210.367188 17.730469 210.308594 17.910156 210.308594 C 18.09375 210.308594 18.246094 210.367188 18.371094 210.496094 C 18.496094 210.621094 18.558594 210.777344 18.558594 210.957031 C 18.558594 211.140625 18.496094 211.292969 18.371094 211.417969 C 18.246094 211.539063 18.09375 211.605469 17.910156 211.605469 M 18.441406 215.117188 L 13.488281 215.117188 L 13.488281 216.167969 L 12.828125 216.167969 L 12.828125 215.117188 L 11.203125 215.117188 C 10.078125 215.117188 9.34375 215.015625 9.007813 214.804688 C 8.671875 214.589844 8.507813 214.203125 8.507813 213.644531 C 8.507813 213.5 8.515625 213.367188 8.539063 213.242188 C 8.5625 213.113281 8.597656 212.996094 8.636719 212.886719 L 9.320313 213.03125 C 9.269531 213.136719 9.230469 213.234375 9.207031 213.324219 C 9.179688 213.421875 9.167969 213.507813 9.167969 213.585938 C 9.167969 213.863281 9.277344 214.058594 9.492188 214.167969 C 9.710938 214.28125 10.113281 214.339844 10.695313 214.339844 L 12.828125 214.339844 L 12.828125 213.109375 L 13.488281 213.109375 L 13.488281 214.339844 L 18.441406 214.339844 Z M 18.441406 218.226563 L 12.828125 218.226563 L 12.828125 217.421875 L 18.441406 217.421875 Z M 10.632813 218.417969 C 10.46875 218.417969 10.328125 218.359375 10.210938 218.242188 C 10.09375 218.125 10.035156 217.984375 10.035156 217.820313 C 10.035156 217.65625 10.09375 217.515625 10.210938 217.394531 C 10.328125 217.273438 10.46875 217.214844 10.632813 217.214844 C 10.804688 217.214844 10.945313 217.273438 11.058594 217.390625 C 11.171875 217.503906 11.230469 217.648438 11.230469 217.820313 C 11.230469 217.988281 11.171875 218.132813 11.058594 218.246094 C 10.945313 218.363281 10.804688 218.417969 10.632813 218.417969 M 18.441406 219.367188 L 18.441406 220.394531 L 14.019531 223.648438 L 14.019531 224.152344 L 18.441406 224.152344 L 18.441406 224.996094 L 9.167969 224.996094 L 9.167969 223.292969 C 9.167969 222.289063 9.375 221.535156 9.792969 221.035156 C 10.210938 220.535156 10.847656 220.285156 11.695313 220.285156 C 12.417969 220.285156 12.984375 220.5 13.398438 220.929688 C 13.8125 221.359375 14.019531 221.945313 14.019531 222.695313 Z M 9.90625 224.152344 L 13.332031 224.152344 L 13.332031 223.304688 C 13.332031 222.519531 13.207031 221.972656 12.957031 221.660156 C 12.703125 221.351563 12.277344 221.195313 11.671875 221.195313 C 11.035156 221.195313 10.582031 221.359375 10.3125 221.679688 C 10.042969 221.996094 9.90625 222.539063 9.90625 223.304688 Z M 15.808594 123.925781 C 16.464844 123.925781 16.984375 123.734375 17.378906 123.359375 C 17.769531 122.980469 17.964844 122.476563 17.964844 121.847656 C 17.964844 121.226563 17.757813 120.726563 17.34375 120.351563 C 16.933594 119.976563 16.382813 119.785156 15.695313 119.785156 C 15.078125 119.785156 14.574219 119.976563 14.179688 120.355469 C 13.785156 120.734375 13.589844 121.230469 13.589844 121.832031 C 13.589844 122.449219 13.796875 122.953125 14.210938 123.34375 C 14.621094 123.730469 15.152344 123.925781 15.808594 123.925781 M 13.34375 123.09375 C 13.1875 122.851563 13.070313 122.605469 12.992188 122.363281 C 12.917969 122.117188 12.878906 121.867188 12.878906 121.613281 C 12.878906 120.820313 13.144531 120.171875 13.671875 119.671875 C 14.203125 119.167969 14.890625 118.914063 15.734375 118.914063 C 16.609375 118.914063 17.324219 119.199219 17.875 119.769531 C 18.425781 120.335938 18.703125 121.070313 18.703125 121.96875 C 18.703125 122.828125 18.445313 123.515625 17.929688 124.027344 C 17.414063 124.535156 16.726563 124.792969 15.859375 124.792969 C 15.351563 124.792969 14.835938 124.683594 14.3125 124.460938 C 13.785156 124.238281 12.988281 123.742188 11.917969 122.972656 L 8.894531 120.808594 L 9.320313 120.121094 "/>
</g>
</svg>
